<?xml version="1.0" encoding="utf-8"?>
<!-- Svg Vector Icons : http://www.onlinewebfonts.com/icon -->
<!DOCTYPE svg PUBLIC "-//W3C//DTD SVG 1.1//EN" "http://www.w3.org/Graphics/SVG/1.1/DTD/svg11.dtd">
<svg version="1.1" xmlns="http://www.w3.org/2000/svg" xmlns:xlink="http://www.w3.org/1999/xlink" x="0px" y="0px" viewBox="0 0 256 256" enable-background="new 0 0 256 256" xml:space="preserve">
<metadata> Svg Vector Icons : http://www.onlinewebfonts.com/icon </metadata>
<g><g><g><path fill="#000000" id="Github" d="M192.2,10.7c-21.1,13.2-42.9,2.1-58.5,0c-69.2-9.1-91.3,71.6-40.8,104c-13,6.7-12.1,41,1.8,45.9c-32.8,3.8-38.9,49.9-21.3,68.8c21.4,22.9,87.2,21.4,106.4,0c13.5-15,15.3-45.8,3.5-60c-10.7-13-64.7-14.9-63.9-35.3c0.6-14.2,20.1-12,31.9-17.6c22.3-10.6,35.4-42.5,26.6-67c5-0.9,9.2-2.6,14.2-3.5V10.7L192.2,10.7z M107.1,84.8c-26-56.5,59.7-52.5,33.7,0C132.3,91.1,115.5,91.7,107.1,84.8z M155,195.9c2.3,25.4-49.1,26.5-55,8.8c-5-14.9,1.2-19.1,16-22.9C132.6,177.4,153.5,178.9,155,195.9z"/></g><g></g><g></g><g></g><g></g><g></g><g></g><g></g><g></g><g></g><g></g><g></g><g></g><g></g><g></g><g></g></g></g>
</svg>