<?xml version="1.0" encoding="utf-8"?>
<!DOCTYPE svg PUBLIC "-//W3C//DTD SVG 1.1//EN" "http://www.w3.org/Graphics/SVG/1.1/DTD/svg11.dtd">
<svg version="1.1" xmlns="http://www.w3.org/2000/svg" xmlns:xlink="http://www.w3.org/1999/xlink" x="0px" y="0px" viewBox="0 0 384 384" enable-background="new 0 0 384 384" xml:space="preserve">
<metadata> Svg Vector Icons : http://www.onlinewebfonts.com/icon </metadata>
<g><g><g><path fill="#000000" id="Github" d="M288.3,16.05c-31.65,19.8-64.35,3.15-87.75,0c-103.8-13.65-136.95,107.4-61.2,156c-19.5,10.05-18.15,61.5,2.7,68.85c-49.2,5.7-58.35,74.85-31.95,103.2c32.1,34.35,130.8,32.1,159.6,0c20.25-22.5,22.95-68.7,5.25-90c-16.05-19.5-97.05-22.35-95.85-52.95c0.9-21.3,30.15-18,47.85-26.4c33.45-15.9,53.1-63.75,39.9-100.5c7.5-1.35,13.8-3.9,21.3-5.25V16.05L288.3,16.05z M160.65,127.2c-39-84.75,89.55-78.75,50.55,0C198.45,136.65,173.25,137.55,160.65,127.2z M232.5,293.85c3.45,38.1-73.65,39.75-82.5,13.2c-7.5-22.35,1.8-28.65,24-34.35C198.9,266.1,230.25,268.35,232.5,293.85z"/></g></g></g>
</svg>