<svg width="36" height="36" xmlns="http://www.w3.org/2000/svg" fill-rule="evenodd" clip-rule="evenodd">
<path d="M4.269 10.33c0.045-0.442-0.124-0.879-0.454-1.176l-3.36-4.05v-0.604h10.437l8.067 17.692 7.092-17.692h9.95v0.604l-2.874 2.756c-0.247 0.189-0.37 0.5-0.319 0.807v20.247c-0.051 0.306 0.072 0.617 0.319 0.806l2.807 2.755v0.604h-14.118v-0.604l2.909-2.823c0.285-0.285 0.285-0.369 0.285-0.806v-16.365l-8.084 20.532h-1.092l-9.412-20.532v13.761c-0.078 0.577 0.114 1.161 0.52 1.578l3.782 4.587v0.606h-10.722v-0.606l3.782-4.587c0.405-0.419 0.585-1.005 0.488-1.578v-15.912z"/>
</svg>